<svg width="588" height="440" viewBox="0 0 588 440" fill="none" xmlns="http://www.w3.org/2000/svg">
<rect width="588" height="440" rx="12" fill="#0E0E0F"/>
<g clip-path="url(#clip0_210_12)">
<path d="M354.598 160.386L295.043 142.029C294.209 141.772 293.321 141.772 292.486 142.029L232.93 160.386C231.049 160.966 229.761 162.745 229.761 164.764V232.074C229.761 240.829 233.21 249.791 240.013 258.711C245.209 265.524 252.398 272.365 261.379 279.045C276.466 290.266 291.322 297.15 291.947 297.437C292.525 297.703 293.145 297.836 293.765 297.836C294.385 297.836 295.004 297.703 295.582 297.437C296.207 297.15 311.063 290.266 326.151 279.045C335.132 272.365 342.32 265.524 347.516 258.711C354.319 249.791 357.768 240.829 357.768 232.074V164.764C357.768 162.745 356.48 160.966 354.598 160.386Z" fill="url(#paint0_linear_210_12)" fill-opacity="0.08"/>
<path fill-rule="evenodd" clip-rule="evenodd" d="M270.059 191.9C270.247 192.047 270.462 192.155 270.69 192.216C270.919 192.278 271.158 192.292 271.392 192.257C271.626 192.223 271.851 192.142 272.055 192.017C272.258 191.893 272.435 191.728 272.576 191.533C275.948 186.914 280.649 183.502 286.013 181.78C291.377 180.058 297.132 180.114 302.464 181.94C307.795 183.766 312.432 187.27 315.718 191.954C319.004 196.638 320.772 202.266 320.772 208.04V217.21C320.772 217.697 320.96 218.163 321.295 218.507C321.63 218.851 322.084 219.044 322.557 219.044C323.031 219.044 323.485 218.851 323.82 218.507C324.154 218.163 324.342 217.697 324.342 217.21V208.04C324.347 201.491 322.345 195.107 318.621 189.793C314.896 184.479 309.637 180.505 303.59 178.435C297.543 176.365 291.015 176.303 284.933 178.259C278.85 180.215 273.521 184.089 269.702 189.332C269.418 189.721 269.296 190.21 269.363 190.692C269.43 191.174 269.68 191.608 270.059 191.9ZM267.988 231.149C268.223 231.151 268.456 231.104 268.673 231.013C268.891 230.922 269.089 230.787 269.255 230.617L270.291 229.535C271.582 228.212 272.606 226.64 273.305 224.909C274.003 223.178 274.362 221.322 274.361 219.448V208.04C274.358 204.629 275.197 201.273 276.8 198.286C278.402 195.298 280.716 192.777 283.524 190.958C286.332 189.139 289.544 188.081 292.858 187.883C296.172 187.686 299.481 188.355 302.475 189.827C302.688 189.952 302.924 190.03 303.168 190.057C303.412 190.084 303.658 190.059 303.892 189.983C304.126 189.908 304.342 189.784 304.528 189.619C304.713 189.454 304.863 189.251 304.969 189.024C305.074 188.797 305.133 188.549 305.142 188.298C305.15 188.046 305.109 187.795 305.019 187.561C304.929 187.326 304.793 187.114 304.619 186.936C304.446 186.758 304.239 186.618 304.01 186.526C300.473 184.787 296.564 183.998 292.649 184.232C288.734 184.466 284.94 185.716 281.622 187.864C278.305 190.013 275.571 192.99 273.677 196.518C271.783 200.047 270.79 204.01 270.79 208.04V219.448C270.793 220.842 270.527 222.224 270.006 223.511C269.485 224.799 268.72 225.968 267.756 226.949L266.721 228.013C266.553 228.184 266.42 228.386 266.33 228.61C266.239 228.833 266.193 229.073 266.193 229.315C266.193 229.557 266.239 229.797 266.33 230.021C266.42 230.244 266.553 230.447 266.721 230.617C266.887 230.787 267.085 230.922 267.303 231.013C267.52 231.104 267.753 231.151 267.988 231.149ZM315.396 198.792C316.595 201.719 317.209 204.864 317.202 208.04L317.149 219.393C317.192 224.422 316.592 229.435 315.364 234.304C315.259 234.704 315.026 235.056 314.702 235.302C314.377 235.549 313.982 235.675 313.579 235.661H313.115C312.887 235.599 312.673 235.492 312.486 235.345C312.298 235.198 312.141 235.014 312.023 234.805C311.906 234.595 311.829 234.363 311.799 234.123C311.769 233.883 311.785 233.639 311.847 233.405C313.041 228.855 313.642 224.161 313.632 219.448V208.04C313.643 205.355 313.125 202.695 312.109 200.221C311.094 197.747 309.602 195.509 307.724 193.642C307.555 193.474 307.42 193.273 307.327 193.05C307.234 192.828 307.184 192.59 307.181 192.348C307.177 192.106 307.221 191.866 307.308 191.641C307.395 191.416 307.524 191.211 307.688 191.038C307.852 190.864 308.048 190.726 308.264 190.63C308.48 190.535 308.713 190.484 308.948 190.48C309.183 190.477 309.417 190.521 309.636 190.61C309.854 190.7 310.054 190.833 310.223 191.001C312.438 193.216 314.197 195.865 315.396 198.792ZM311.868 237.292C312.103 237.276 312.338 237.308 312.561 237.385C312.784 237.462 312.99 237.583 313.168 237.742C313.345 237.9 313.49 238.093 313.594 238.31C313.699 238.526 313.761 238.762 313.776 239.003C313.792 239.244 313.761 239.486 313.686 239.714C313.525 240.191 313.346 240.668 313.15 241.163C313.013 241.495 312.785 241.778 312.493 241.977C312.201 242.176 311.858 242.282 311.508 242.282C311.268 242.287 311.03 242.237 310.812 242.135C310.376 241.945 310.032 241.586 309.855 241.135C309.677 240.685 309.681 240.18 309.866 239.733C310.026 239.348 310.169 238.944 310.294 238.541C310.369 238.312 310.486 238.1 310.641 237.918C310.795 237.735 310.983 237.586 311.194 237.479C311.404 237.371 311.634 237.308 311.868 237.292ZM309.54 212.245C309.875 212.589 310.063 213.056 310.063 213.542V219.448C310.083 229.104 307.407 238.563 302.351 246.702C302.19 246.961 301.968 247.173 301.706 247.321C301.444 247.468 301.151 247.546 300.852 247.546C300.51 247.545 300.175 247.443 299.888 247.253C299.491 246.989 299.211 246.575 299.111 246.101C299.011 245.626 299.097 245.13 299.352 244.722C304.034 237.171 306.512 228.4 306.493 219.448V213.542C306.493 213.056 306.681 212.589 307.016 212.245C307.35 211.901 307.804 211.708 308.278 211.708C308.751 211.708 309.205 211.901 309.54 212.245ZM279.716 215.376C280.189 215.376 280.644 215.183 280.978 214.839C281.313 214.495 281.501 214.029 281.501 213.542V208.04C281.295 204.635 282.414 201.285 284.612 198.728C286.81 196.171 289.906 194.615 293.22 194.403C296.534 194.192 299.794 195.342 302.283 197.6C304.772 199.858 306.286 203.039 306.492 206.444C306.554 206.931 306.801 207.372 307.179 207.671C307.557 207.97 308.036 208.103 308.509 208.04C308.983 207.977 309.412 207.723 309.703 207.334C309.995 206.945 310.124 206.454 310.062 205.967C309.795 201.589 307.845 197.5 304.643 194.599C301.441 191.698 297.249 190.222 292.988 190.497C288.727 190.772 284.747 192.774 281.923 196.064C279.1 199.354 277.664 203.662 277.931 208.04V213.542C277.931 214.029 278.119 214.495 278.454 214.839C278.789 215.183 279.243 215.376 279.716 215.376ZM279.023 219.134C279.246 219.057 279.482 219.027 279.716 219.044C279.962 219.044 280.205 219.095 280.43 219.195C280.655 219.295 280.857 219.442 281.025 219.626C281.193 219.81 281.321 220.028 281.403 220.265C281.485 220.503 281.519 220.755 281.502 221.007C281.124 226.193 278.937 231.064 275.343 234.726L273.112 237.018C272.953 237.211 272.757 237.369 272.536 237.48C272.316 237.592 272.075 237.656 271.829 237.667C271.584 237.679 271.338 237.638 271.109 237.547C270.879 237.457 270.67 237.318 270.495 237.141C270.32 236.963 270.182 236.751 270.091 236.516C269.999 236.281 269.956 236.03 269.964 235.777C269.972 235.525 270.03 235.277 270.136 235.048C270.241 234.82 270.391 234.616 270.577 234.451L272.737 232.14C275.705 229.093 277.505 225.05 277.806 220.75C277.822 220.509 277.884 220.274 277.989 220.057C278.094 219.841 278.239 219.648 278.416 219.489C278.594 219.331 278.8 219.21 279.023 219.134ZM300.62 226.381C300.39 226.332 300.153 226.331 299.923 226.377C299.693 226.423 299.474 226.515 299.278 226.648C299.082 226.78 298.914 226.952 298.783 227.151C298.652 227.351 298.56 227.575 298.513 227.811C297.189 234.276 294.311 240.298 290.141 245.327C289.834 245.696 289.681 246.177 289.718 246.662C289.755 247.147 289.978 247.597 290.338 247.913C290.698 248.229 291.165 248.385 291.637 248.347C292.109 248.31 292.547 248.081 292.855 247.711C297.411 242.211 300.559 235.63 302.012 228.563C302.062 228.326 302.065 228.081 302.021 227.842C301.978 227.603 301.889 227.376 301.76 227.173C301.63 226.97 301.463 226.795 301.267 226.659C301.071 226.523 300.851 226.429 300.62 226.381ZM290.209 204.149C289.205 205.181 288.641 206.581 288.641 208.04V219.448C288.669 223.257 287.961 227.035 286.558 230.561C285.154 234.087 283.083 237.292 280.465 239.99C280.299 240.161 280.102 240.298 279.884 240.391C279.667 240.484 279.433 240.532 279.198 240.532C278.962 240.532 278.729 240.484 278.511 240.391C278.294 240.298 278.096 240.161 277.93 239.99C277.763 239.819 277.63 239.616 277.54 239.393C277.449 239.169 277.402 238.929 277.402 238.687C277.402 238.445 277.449 238.206 277.54 237.982C277.63 237.759 277.763 237.556 277.93 237.385C280.221 235.033 282.032 232.235 283.258 229.155C284.484 226.075 285.1 222.775 285.071 219.448V208.04C285.071 205.608 286.011 203.275 287.685 201.555C289.359 199.836 291.629 198.869 293.996 198.869C296.363 198.869 298.633 199.836 300.307 201.555C301.981 203.275 302.921 205.608 302.921 208.04V219.448V221.025C302.883 221.512 302.659 221.963 302.297 222.279C301.936 222.595 301.467 222.751 300.993 222.712C300.52 222.674 300.081 222.443 299.773 222.072C299.465 221.7 299.313 221.218 299.351 220.732V219.448V208.04C299.351 206.581 298.787 205.181 297.783 204.149C296.778 203.117 295.416 202.538 293.996 202.538C292.576 202.538 291.214 203.117 290.209 204.149ZM284.447 240.815C283.965 241.402 283.447 241.952 282.912 242.502C282.744 242.673 282.612 242.876 282.521 243.099C282.43 243.323 282.384 243.562 282.384 243.804C282.384 244.047 282.43 244.286 282.521 244.51C282.612 244.733 282.744 244.936 282.912 245.107C283.078 245.279 283.275 245.415 283.493 245.508C283.71 245.601 283.943 245.649 284.179 245.649C284.415 245.649 284.648 245.601 284.866 245.508C285.083 245.415 285.28 245.279 285.446 245.107C285.65 244.897 285.848 244.688 286.044 244.48C286.433 244.069 286.816 243.663 287.231 243.273C287.539 242.903 287.691 242.423 287.655 241.938C287.618 241.453 287.395 241.003 287.035 240.687C286.675 240.37 286.208 240.214 285.736 240.252C285.264 240.29 284.826 240.519 284.518 240.888L284.447 240.815ZM295.782 219.448C295.789 226.239 293.933 232.894 290.427 238.651C290.176 239.064 289.775 239.358 289.313 239.468C288.851 239.578 288.366 239.495 287.963 239.238C287.561 238.98 287.275 238.568 287.167 238.094C287.06 237.619 287.141 237.12 287.392 236.707C290.549 231.535 292.22 225.552 292.212 219.448V208.04C292.212 207.553 292.4 207.087 292.734 206.743C293.069 206.399 293.523 206.206 293.997 206.206C294.47 206.206 294.924 206.399 295.259 206.743C295.594 207.087 295.782 207.553 295.782 208.04V219.448ZM269.273 197.439C267.919 200.8 267.222 204.402 267.221 208.04V217.21C267.221 217.697 267.032 218.163 266.698 218.507C266.363 218.851 265.909 219.044 265.435 219.044C264.962 219.044 264.508 218.851 264.173 218.507C263.838 218.163 263.65 217.697 263.65 217.21V208.04C263.645 203.921 264.44 199.843 265.989 196.045C266.197 195.642 266.543 195.333 266.961 195.179C267.378 195.024 267.837 195.035 268.247 195.209C268.657 195.383 268.99 195.708 269.179 196.12C269.369 196.533 269.403 197.003 269.273 197.439Z" fill="url(#paint1_linear_210_12)"/>
<path d="M354.535 161.342L354.535 161.342C355.983 161.788 356.999 163.169 356.999 164.764V232.074C356.999 240.555 353.66 249.31 346.952 258.105C341.827 264.825 334.713 271.603 325.785 278.243C310.78 289.403 295.996 296.253 295.396 296.528L295.395 296.529C294.95 296.734 294.473 296.836 293.996 296.836C293.52 296.836 293.043 296.734 292.597 296.528L292.596 296.528C291.997 296.253 277.212 289.403 262.207 278.243C253.279 271.603 246.165 264.825 241.04 258.105C234.332 249.309 230.992 240.555 230.992 232.074V164.764C230.992 163.169 232.009 161.788 233.456 161.342L233.457 161.342L293.013 142.984L293.013 142.984C293.655 142.786 294.338 142.786 294.98 142.984L294.98 142.984L354.535 161.342Z" stroke="url(#paint2_linear_210_12)" stroke-width="2"/>
<path d="M297.221 16.2021L297.221 16.2021L459.127 64.4492L459.349 63.703L459.127 64.4492C463.866 65.8608 467.103 70.1902 467.103 75.0947V252C467.103 274.756 457.832 298.12 439.425 321.453C425.364 339.276 405.89 357.2 381.522 374.721C340.579 404.16 300.255 422.222 298.578 422.968L298.578 422.968C297.123 423.616 295.563 423.939 294.002 423.939C292.441 423.939 290.88 423.615 289.425 422.968L289.425 422.968C287.747 422.222 247.423 404.16 206.479 374.721C182.112 357.2 162.637 339.276 148.577 321.453C130.17 298.119 120.897 274.755 120.897 252V75.0947C120.897 70.1903 124.136 65.8608 128.873 64.4492L128.617 63.5899L128.873 64.4492L290.782 16.2021L290.526 15.3428L290.782 16.2021C292.883 15.576 295.121 15.5761 297.221 16.2021Z" stroke="url(#paint3_linear_210_12)" stroke-opacity="0.4" stroke-width="1.79323"/>
<path d="M296.08 82.0383L296.08 82.0383L404.948 114.752L405.206 113.894L404.948 114.752C408.008 115.671 410.103 118.493 410.103 121.694V241.645C410.103 256.995 403.902 272.776 391.553 288.561C382.119 300.619 369.046 312.755 352.677 324.624C325.17 344.567 298.077 356.804 296.957 357.306L296.956 357.307C296.017 357.729 295.009 357.939 294.001 357.939C292.993 357.939 291.986 357.728 291.046 357.307L291.045 357.306C289.925 356.804 262.831 344.567 235.324 324.624C218.955 312.755 205.881 300.619 196.448 288.561C184.099 272.776 177.897 256.994 177.897 241.645V121.694C177.897 118.493 179.993 115.671 183.052 114.752L182.794 113.894L183.052 114.752L291.922 82.0383L291.664 81.1799L291.922 82.0383C293.279 81.6306 294.724 81.6306 296.08 82.0383Z" stroke="url(#paint4_linear_210_12)" stroke-opacity="0.4" stroke-width="1.79323"/>
<path d="M298.438 -57.6155L298.438 -57.6155L517.104 8.04763L517.362 7.1889L517.104 8.04766C523.634 10.0076 528.103 16.0228 528.103 22.8467V263.611C528.103 294.675 515.543 326.542 490.652 358.337C471.638 382.624 445.313 407.038 412.386 430.896C357.064 470.98 302.581 495.572 300.309 496.59L300.308 496.59C298.303 497.49 296.153 497.939 294.002 497.939C291.852 497.939 289.701 497.489 287.696 496.59L287.333 497.398L287.695 496.59C285.422 495.572 230.938 470.98 175.616 430.896C142.689 407.038 116.363 382.623 97.3505 358.337C72.459 326.541 59.8966 294.674 59.8966 263.611V22.8467C59.8966 16.0229 64.3684 10.0076 70.8961 8.04764L70.6429 7.20428L70.8962 8.04763L289.566 -57.6155L289.308 -58.4742L289.566 -57.6155C292.461 -58.4848 295.545 -58.4848 298.438 -57.6155Z" stroke="url(#paint5_linear_210_12)" stroke-opacity="0.4" stroke-width="1.79323"/>
<path d="M300.037 -151.219L300.037 -151.219L593.142 -63.4717L593.399 -64.3306L593.142 -63.4716C602.025 -60.8135 608.103 -52.6567 608.103 -43.4067V278.333C608.103 319.929 591.232 362.578 557.838 405.104C532.33 437.586 497.02 470.231 452.868 502.125C378.687 555.708 305.635 588.582 302.582 589.945L302.582 589.945C299.854 591.166 296.929 591.775 294.003 591.775C291.077 591.775 288.152 591.165 285.424 589.945L285.07 590.737L285.423 589.945C282.369 588.582 209.315 555.708 135.135 502.125C90.9827 470.231 55.6711 437.586 30.1648 405.104C-3.22979 362.576 -20.1034 319.928 -20.1034 278.333V-43.4067C-20.1034 -52.6566 -14.023 -60.8135 -5.14264 -63.4717L287.968 -151.219L287.711 -152.078L287.968 -151.219C291.906 -152.398 296.101 -152.398 300.037 -151.219Z" stroke="url(#paint6_linear_210_12)" stroke-opacity="0.4" stroke-width="1.79323"/>
<rect y="258" width="588" height="182" rx="12" fill="url(#paint7_linear_210_12)"/>
</g>
<defs>
<linearGradient id="paint0_linear_210_12" x1="193.263" y1="138.734" x2="346.105" y2="287.49" gradientUnits="userSpaceOnUse">
<stop stop-color="white"/>
<stop offset="1" stop-color="white" stop-opacity="0"/>
</linearGradient>
<linearGradient id="paint1_linear_210_12" x1="293.996" y1="148.336" x2="293.996" y2="248.353" gradientUnits="userSpaceOnUse">
<stop stop-color="#08B296"/>
<stop offset="1" stop-color="#005469" stop-opacity="0.4"/>
</linearGradient>
<linearGradient id="paint2_linear_210_12" x1="84.4995" y1="114.836" x2="240.139" y2="277.06" gradientUnits="userSpaceOnUse">
<stop stop-color="white" stop-opacity="0.3"/>
<stop offset="1" stop-color="white" stop-opacity="0"/>
</linearGradient>
<linearGradient id="paint3_linear_210_12" x1="14.8352" y1="-48.9936" x2="262.619" y2="225.503" gradientUnits="userSpaceOnUse">
<stop stop-color="white" stop-opacity="0"/>
<stop offset="0.49" stop-color="#F8F8F8" stop-opacity="0.08"/>
<stop offset="1" stop-color="#F4F4F4" stop-opacity="0.03"/>
</linearGradient>
<linearGradient id="paint4_linear_210_12" x1="106.286" y1="37.5564" x2="274.432" y2="222.283" gradientUnits="userSpaceOnUse">
<stop stop-color="white" stop-opacity="0"/>
<stop offset="0.49" stop-color="#F8F8F8" stop-opacity="0.08"/>
<stop offset="1" stop-color="#F4F4F4" stop-opacity="0.03"/>
</linearGradient>
<linearGradient id="paint5_linear_210_12" x1="-83.033" y1="-146.035" x2="254.448" y2="224.973" gradientUnits="userSpaceOnUse">
<stop stop-color="white" stop-opacity="0"/>
<stop offset="0.49" stop-color="#F8F8F8" stop-opacity="0.08"/>
<stop offset="1" stop-color="#F4F4F4" stop-opacity="0.03"/>
</linearGradient>
<linearGradient id="paint6_linear_210_12" x1="-211.385" y1="-269.088" x2="239.469" y2="228.074" gradientUnits="userSpaceOnUse">
<stop stop-color="white" stop-opacity="0"/>
<stop offset="0.49" stop-color="#F8F8F8" stop-opacity="0.08"/>
<stop offset="1" stop-color="#F4F4F4" stop-opacity="0.03"/>
</linearGradient>
<linearGradient id="paint7_linear_210_12" x1="294" y1="324.733" x2="294" y2="390.939" gradientUnits="userSpaceOnUse">
<stop stop-color="#0E0E0F" stop-opacity="0"/>
<stop offset="1" stop-color="#0E0E0F"/>
</linearGradient>
<clipPath id="clip0_210_12">
<rect width="588" height="440" fill="white"/>
</clipPath>
</defs>
</svg>
